<?xml version="1.0" encoding="utf-8"?>
<!-- Generator: Adobe Illustrator 15.0.0, SVG Export Plug-In . SVG Version: 6.00 Build 0)  -->
<!DOCTYPE svg PUBLIC "-//W3C//DTD SVG 1.1//EN" "http://www.w3.org/Graphics/SVG/1.1/DTD/svg11.dtd">
<svg version="1.1" id="Calque_1" xmlns="http://www.w3.org/2000/svg" xmlns:xlink="http://www.w3.org/1999/xlink" x="0px" y="0px"
	 width="120px" height="37px" viewBox="0 0 120 37" enable-background="new 0 0 120 37" xml:space="preserve">
<g>
	<g>
		<path fill="#FFFBFF" d="M12.116,19.111H5.285l-2.346,4.423H0L10.699,3.931h0.18l5.904,19.603h-3.455L12.116,19.111z M11.42,16.525
			l-1.598-5.87l-3.145,5.87H11.42z"/>
		<path fill="#FFFBFF" d="M22.299,4.707h5.956c2.011,0,3.647,0.38,4.911,1.138c1.263,0.759,2.178,1.763,2.746,3.013
			c0.567,1.25,0.851,2.634,0.851,4.15c0,0.259-0.018,0.647-0.052,1.164c-0.155,1.897-0.701,3.552-1.637,4.967
			c-0.937,1.413-2.14,2.5-3.609,3.258c-1.47,0.758-3.047,1.139-4.731,1.139h-6.729L22.299,4.707z M26.63,20.637
			c1.976,0,3.604-0.576,4.885-1.732c1.28-1.155,1.998-2.802,2.153-4.94c0.034-0.414,0.051-0.707,0.051-0.879
			c0-1.275-0.275-2.328-0.825-3.155c-0.55-0.828-1.25-1.426-2.102-1.797c-0.851-0.371-1.749-0.556-2.693-0.556h-3.146l-1.598,13.061
			h3.275V20.637z"/>
		<path fill="#FFFBFF" d="M60.866,4.035l-2.397,19.499h-2.991l1.341-10.914l-7.734,9.388h-0.051l-5.311-8.922l-1.289,10.448h-2.888
			l2.372-19.499h0.026l7.734,13.292L60.814,4.035H60.866z"/>
		<path fill="#FFFBFF" d="M69.063,4.707L66.77,23.534h-3.094l2.295-18.827H69.063z"/>
		<path fill="#FFFBFF" d="M90.848,4.707l-2.398,19.499h-0.077l-11.91-13.189l-1.47,12.517h-3.016L74.348,4.06h0.129l11.858,13.371
			L87.83,4.707H90.848z"/>
	</g>
</g>
<path fill="#179174" d="M84.811,0C84.811,0,120,6.264,120,17.651c0,11.387-35.189,21.921-35.189,18.791
	c0-3.133,21.002-6.844,21.002-17.94C105.813,7.402,81.298,3.523,84.811,0z"/>
<path fill="#E28425" d="M84.573,2.468c0,0,20.454,1.421,22.01,10.292c1.556,8.871-16.603,20.537-17.03,18.098
	c-0.429-2.439,10.76-7.396,9.244-16.042C97.281,6.172,83.1,5.559,84.573,2.468z"/>
</svg>
