<?xml version="1.0" encoding="utf-8"?>
<!-- Generator: Adobe Illustrator 15.0.0, SVG Export Plug-In . SVG Version: 6.00 Build 0)  -->
<!DOCTYPE svg PUBLIC "-//W3C//DTD SVG 1.1//EN" "http://www.w3.org/Graphics/SVG/1.1/DTD/svg11.dtd">
<svg version="1.1" id="Capa_1" xmlns="http://www.w3.org/2000/svg" xmlns:xlink="http://www.w3.org/1999/xlink" x="0px" y="0px"
	 width="21px" height="21px" viewBox="0 0 21 21" enable-background="new 0 0 21 21" xml:space="preserve">
<g>
	<g>
		<path fill="#2D2D2D" d="M12.45,15.455c-0.532-0.527-1.2-0.527-1.733,0c-0.406,0.402-0.813,0.804-1.209,1.214
			c-0.109,0.113-0.201,0.136-0.336,0.062c-0.262-0.145-0.542-0.258-0.794-0.414c-1.174-0.738-2.161-1.689-3.034-2.764
			c-0.432-0.533-0.82-1.101-1.087-1.74c-0.052-0.131-0.048-0.215,0.062-0.319C4.725,11.1,5.122,10.7,5.52,10.297
			c0.554-0.559,0.554-1.213-0.004-1.776C5.201,8.204,4.882,7.884,4.563,7.57C4.236,7.243,3.913,6.916,3.581,6.588
			c-0.537-0.522-1.2-0.528-1.737,0C1.438,6.991,1.041,7.404,0.631,7.797C0.247,8.165,0.05,8.609,0.011,9.133
			c-0.061,0.847,0.144,1.65,0.438,2.431c0.602,1.615,1.515,3.047,2.618,4.365c1.494,1.78,3.283,3.187,5.373,4.203
			c0.938,0.458,1.916,0.807,2.977,0.863c0.729,0.039,1.367-0.145,1.873-0.711c0.35-0.389,0.736-0.742,1.107-1.113
			c0.547-0.55,0.552-1.218,0.01-1.763C13.751,16.752,13.102,16.105,12.45,15.455z"/>
		<path fill="#2D2D2D" d="M19.063,1.937c-2.584-2.584-6.77-2.584-9.354,0c-2.488,2.488-2.58,6.461-0.279,9.058l0.065,0.056
			c-0.249,0.541-0.681,1.204-1.362,1.541c-0.227,0.108-0.174,0.444,0.074,0.484c0.747,0.117,1.816-0.014,2.811-0.77l0.014,0.014
			c2.535,1.492,5.85,1.147,8.027-1.03C21.646,8.708,21.646,4.521,19.063,1.937z M14.667,2.532c0.595,0.004,1.069,0.489,1.065,1.091
			c-0.006,0.598-0.489,1.083-1.069,1.078c-0.603-0.006-1.087-0.498-1.082-1.096C13.585,3.007,14.068,2.527,14.667,2.532z
			 M16.199,9.798c-0.021,0.092-0.083,0.188-0.148,0.258c-0.393,0.397-0.859,0.633-1.423,0.643c-0.262,0.004-0.528-0.004-0.785-0.045
			c-0.433-0.061-0.978-0.594-0.899-1.164c0.054-0.389,0.113-0.777,0.18-1.166c0.113-0.672,0.236-1.35,0.354-2.021
			c0.008-0.043,0.008-0.087,0.008-0.131c0-0.283-0.086-0.38-0.365-0.419c-0.118-0.019-0.244-0.026-0.354-0.065
			c-0.141-0.047-0.201-0.156-0.188-0.271c0.013-0.118,0.087-0.192,0.239-0.224c0.078-0.018,0.162-0.018,0.244-0.018
			c0.332,0,0.66,0,0.99,0c0.35,0,0.698,0,1.053,0c0.254,0,0.401,0.118,0.41,0.371c0.004,0.209-0.031,0.419-0.07,0.628
			c-0.135,0.769-0.278,1.536-0.418,2.31c-0.049,0.252-0.102,0.51-0.127,0.764C14.885,9.37,14.902,9.5,14.934,9.619
			c0.039,0.16,0.162,0.249,0.322,0.23c0.135-0.018,0.271-0.065,0.401-0.113c0.104-0.039,0.196-0.113,0.306-0.153
			C16.107,9.529,16.238,9.638,16.199,9.798z"/>
	</g>
</g>
</svg>
