<?xml version="1.0" encoding="utf-8"?>
<!-- Generator: Adobe Illustrator 15.0.0, SVG Export Plug-In . SVG Version: 6.00 Build 0)  -->
<!DOCTYPE svg PUBLIC "-//W3C//DTD SVG 1.1//EN" "http://www.w3.org/Graphics/SVG/1.1/DTD/svg11.dtd">
<svg version="1.1" id="Capa_1" xmlns="http://www.w3.org/2000/svg" xmlns:xlink="http://www.w3.org/1999/xlink" x="0px" y="0px"
	 width="21px" height="27.557px" viewBox="0 0 21 27.557" enable-background="new 0 0 21 27.557" xml:space="preserve">
<g>
	<path fill="#2D2D2D" d="M13.824,11.342c1.705-1.096,2.836-3.005,2.836-5.182c0-3.402-2.758-6.16-6.159-6.16
		c-3.402,0-6.16,2.758-6.16,6.16c0,2.177,1.132,4.086,2.837,5.182C3.16,11.702,0,15.085,0,19.197v6.393l0.017,0.1l0.44,0.139
		c4.15,1.297,7.756,1.73,10.724,1.73c5.796,0,9.156-1.654,9.364-1.76l0.41-0.209H21v-6.393
		C21.001,15.087,17.842,11.703,13.824,11.342z"/>
</g>
</svg>
