<?xml version="1.0" encoding="utf-8"?>
<!-- Generator: Adobe Illustrator 15.0.0, SVG Export Plug-In . SVG Version: 6.00 Build 0)  -->
<!DOCTYPE svg PUBLIC "-//W3C//DTD SVG 1.1//EN" "http://www.w3.org/Graphics/SVG/1.1/DTD/svg11.dtd">
<svg version="1.1" id="Calque_1" xmlns="http://www.w3.org/2000/svg" xmlns:xlink="http://www.w3.org/1999/xlink" x="0px" y="0px"
	 width="21px" height="21px" viewBox="0 0 21 21" enable-background="new 0 0 21 21" xml:space="preserve">
<g>
	<path fill="#2D2D2D" d="M8.654,11.115h3.692v1.23H8.654V11.115z"/>
	<path fill="#2D2D2D" d="M17.037,12.346h-3.461v0.615c0,0.34-0.275,0.615-0.615,0.615H8.039c-0.34,0-0.615-0.275-0.615-0.615v-0.615
		H3.962c-0.795,0-1.499-0.508-1.75-1.262L0,4.445v13.438c0,1.018,0.828,1.846,1.846,1.846h17.309c1.018,0,1.846-0.828,1.846-1.846
		V4.447l-2.211,6.637C18.535,11.838,17.832,12.346,17.037,12.346z"/>
	<path fill="#2D2D2D" d="M12.961,1.271H8.039c-1.018,0-1.846,0.828-1.846,1.846v0.615H1.058l2.319,6.961
		c0.084,0.252,0.319,0.421,0.584,0.421h3.461V10.5c0-0.34,0.275-0.615,0.615-0.615h4.921c0.34,0,0.615,0.275,0.615,0.615v0.615
		h3.461c0.266,0,0.5-0.17,0.584-0.42l2.32-6.963h-5.135V3.118C14.807,2.1,13.979,1.271,12.961,1.271z M7.423,3.732V3.117
		c0-0.34,0.275-0.615,0.615-0.615h4.922c0.34,0,0.615,0.275,0.615,0.615v0.615H7.423z"/>
</g>
</svg>
