<?xml version="1.0" encoding="utf-8"?>
<!-- Generator: Adobe Illustrator 15.0.0, SVG Export Plug-In . SVG Version: 6.00 Build 0)  -->
<!DOCTYPE svg PUBLIC "-//W3C//DTD SVG 1.1//EN" "http://www.w3.org/Graphics/SVG/1.1/DTD/svg11.dtd">
<svg version="1.1" id="Capa_1" xmlns="http://www.w3.org/2000/svg" xmlns:xlink="http://www.w3.org/1999/xlink" x="0px" y="0px"
	 width="21px" height="21px" viewBox="0 0 21 21" enable-background="new 0 0 21 21" xml:space="preserve">
<g>
	<path id="settings_1_" fill="#2D2D2D" d="M20.232,8.97l-2.08-0.348c-0.15-0.618-0.371-1.209-0.658-1.76l1.332-1.651
		c0.283-0.349,0.27-0.851-0.029-1.188l-0.826-0.931c-0.301-0.336-0.799-0.407-1.178-0.167l-1.777,1.117
		c-0.783-0.547-1.67-0.95-2.625-1.185l-0.35-2.091c-0.072-0.443-0.457-0.769-0.904-0.769H9.888c-0.449,0-0.834,0.325-0.905,0.769
		L8.632,2.859c-0.79,0.193-1.53,0.506-2.208,0.917L4.733,2.568c-0.364-0.26-0.865-0.22-1.185,0.098L2.667,3.549
		C2.351,3.866,2.311,4.367,2.571,4.732l1.21,1.695c-0.407,0.671-0.717,1.407-0.91,2.191L0.767,8.971
		C0.326,9.043-0.001,9.427-0.001,9.876v1.246c0,0.449,0.326,0.834,0.769,0.906l2.104,0.352c0.159,0.646,0.391,1.261,0.696,1.832
		l-1.325,1.642c-0.282,0.35-0.271,0.852,0.028,1.188l0.826,0.933c0.3,0.338,0.798,0.405,1.177,0.168l1.805-1.135
		c0.765,0.522,1.628,0.905,2.555,1.135l0.351,2.092c0.071,0.443,0.456,0.768,0.905,0.768h1.247c0.449,0,0.834-0.323,0.906-0.768
		l0.35-2.092c0.779-0.191,1.512-0.498,2.182-0.902l1.762,1.258c0.365,0.263,0.865,0.222,1.186-0.098l0.881-0.881
		c0.316-0.316,0.359-0.818,0.096-1.185l-1.254-1.758c0.408-0.674,0.719-1.412,0.912-2.199l2.08-0.348
		c0.441-0.072,0.768-0.457,0.768-0.906V9.877C21,9.426,20.676,9.042,20.232,8.97z M10.534,14.436c-2.174,0-3.938-1.765-3.938-3.938
		c0-2.174,1.764-3.938,3.938-3.938c2.173,0,3.939,1.763,3.939,3.938C14.471,12.673,12.707,14.436,10.534,14.436z"/>
</g>
</svg>
