<?xml version="1.0" encoding="utf-8"?>
<!-- Generator: Adobe Illustrator 15.0.0, SVG Export Plug-In . SVG Version: 6.00 Build 0)  -->
<!DOCTYPE svg PUBLIC "-//W3C//DTD SVG 1.1//EN" "http://www.w3.org/Graphics/SVG/1.1/DTD/svg11.dtd">
<svg version="1.1" id="Calque_1" xmlns="http://www.w3.org/2000/svg" xmlns:xlink="http://www.w3.org/1999/xlink" x="0px" y="0px"
	 width="21px" height="28px" viewBox="0 0 21 28" enable-background="new 0 0 21 28" xml:space="preserve">
<g>
	<path fill="#2D2D2D" d="M5.641,3.781c0-1.181,0.954-2.142,2.125-2.142h0.395c1.172,0,2.125,0.961,2.125,2.142v1.605h1.629V3.781
		c0-2.085-1.685-3.782-3.755-3.782H7.767c-2.07,0-3.755,1.696-3.755,3.782v1.605h1.629V3.781z"/>
	<path fill="#2D2D2D" d="M8.558,14.777c0.053-0.73,0.375-1.408,0.908-1.906c0.219-0.204,0.466-0.37,0.731-0.496v-0.408
		c0-0.836,0.19-1.625,0.527-2.322c0.295-0.608,0.702-1.146,1.192-1.584c0.539-0.479,1.18-0.838,1.881-1.03
		c-0.008,0-0.014-0.001-0.021-0.001H2.151c-0.66,0-1.203,0.521-1.236,1.185L0.001,26.691c-0.035,0.713,0.529,1.31,1.236,1.31h6.74
		c-0.213-0.449-0.311-0.952-0.274-1.458L8.558,14.777z"/>
	<path fill="#2D2D2D" d="M20.997,26.662c0,0-0.862-11.838-0.868-11.875c-0.051-0.514-0.463-1.045-1.222-1.045h-7.489
		c-0.714,0-1.147,0.425-1.221,1.045c-0.006,0.035-0.869,11.875-0.869,11.875C9.275,27.385,9.843,28,10.562,28h9.2
		C20.481,28,21.049,27.384,20.997,26.662z"/>
	<path fill="#2D2D2D" d="M11.826,11.83v0.27h1.596v-0.24c0-0.966,0.776-1.749,1.736-1.749c0.959,0,1.736,0.783,1.736,1.749v0.24
		h1.604v-0.27c0-1.834-1.477-3.322-3.298-3.322h-0.075C13.305,8.508,11.826,9.996,11.826,11.83z"/>
</g>
</svg>
