<?xml version="1.0" encoding="utf-8"?>
<!-- Generator: Adobe Illustrator 15.0.0, SVG Export Plug-In . SVG Version: 6.00 Build 0)  -->
<!DOCTYPE svg PUBLIC "-//W3C//DTD SVG 1.1//EN" "http://www.w3.org/Graphics/SVG/1.1/DTD/svg11.dtd">
<svg version="1.1" id="Calque_1" xmlns="http://www.w3.org/2000/svg" xmlns:xlink="http://www.w3.org/1999/xlink" x="0px" y="0px"
	 width="21px" height="32px" viewBox="0 3.28 21 32" enable-background="new 0 3.28 21 32" xml:space="preserve">
<g>
	<path fill="#2D2D2D" d="M14.988,16.003v-1.017h1.248c1.07,0,2.012-0.596,2.453-1.557c0.44-0.962,0.275-2.047-0.434-2.839
		l-5.732-6.411C12.01,3.607,11.275,3.28,10.5,3.28c-0.773,0-1.512,0.327-2.023,0.899L2.741,10.59
		c-0.708,0.792-0.873,1.878-0.43,2.839c0.44,0.961,1.381,1.557,2.453,1.557H6.01v1.017c1.399-0.512,2.912-0.792,4.49-0.792
		S13.59,15.492,14.988,16.003z"/>
	<path fill="#2D2D2D" d="M21,24.96c0-5.69-4.71-10.32-10.5-10.32S0,19.27,0,24.96C0,30.65,4.71,35.28,10.5,35.28S21,30.65,21,24.96z
		 M11.709,29.823v0.98c0,0.657-0.541,1.188-1.208,1.188c-0.668,0-1.209-0.531-1.209-1.188v-0.738H8.417
		c-0.668,0-1.209-0.534-1.209-1.19c0-0.655,0.542-1.188,1.209-1.188H10.5c0.482,0,0.875-0.473,0.875-1.052
		c0-0.582-0.393-1.052-0.875-1.052c-1.816,0-3.294-1.539-3.294-3.43c0-1.446,0.864-2.686,2.084-3.188v-0.981
		c0-0.657,0.542-1.189,1.209-1.189s1.208,0.532,1.208,1.189v0.738h0.876c0.668,0,1.209,0.533,1.209,1.19
		c0,0.656-0.541,1.188-1.209,1.188H10.5c-0.482,0-0.875,0.471-0.875,1.052s0.393,1.053,0.875,1.053c1.816,0,3.293,1.538,3.293,3.429
		C13.794,28.081,12.93,29.32,11.709,29.823z"/>
</g>
</svg>
