<?xml version="1.0" encoding="utf-8"?>
<!-- Generator: Adobe Illustrator 15.0.0, SVG Export Plug-In . SVG Version: 6.00 Build 0)  -->
<!DOCTYPE svg PUBLIC "-//W3C//DTD SVG 1.1//EN" "http://www.w3.org/Graphics/SVG/1.1/DTD/svg11.dtd">
<svg version="1.1" id="Calque_1" xmlns="http://www.w3.org/2000/svg" xmlns:xlink="http://www.w3.org/1999/xlink" x="0px" y="0px"
	 width="128px" height="512px" viewBox="0 0 128 512" enable-background="new 0 0 128 512" xml:space="preserve">
<g id="more-vert">
	<path fill="#006E12" d="M64.009,127.996c35.187,0,63.991-28.803,63.991-63.998C128,28.802,99.193,0,64.009,0
		C28.809,0,0,28.802,0,63.999C0,99.194,28.807,127.996,64.009,127.996z M64.009,192.012C28.809,192.012,0,220.814,0,256.01
		c0,35.178,28.809,63.979,64.009,63.979c35.187,0,63.991-28.802,63.991-63.979C127.998,220.814,99.193,192.012,64.009,192.012z
		 M64.009,384.043C28.809,384.043,0,412.845,0,448.022C0,483.199,28.809,512,64.009,512C99.193,512,128,483.198,128,448.021
		C128,412.846,99.193,384.043,64.009,384.043z"/>
</g>
</svg>
