<?xml version="1.0" encoding="utf-8"?>
<!-- Generator: Adobe Illustrator 15.0.0, SVG Export Plug-In . SVG Version: 6.00 Build 0)  -->
<!DOCTYPE svg PUBLIC "-//W3C//DTD SVG 1.1//EN" "http://www.w3.org/Graphics/SVG/1.1/DTD/svg11.dtd">
<svg version="1.1" id="Capa_1" xmlns="http://www.w3.org/2000/svg" xmlns:xlink="http://www.w3.org/1999/xlink" x="0px" y="0px"
	 width="21px" height="21.425px" viewBox="0 0 21 21.425" enable-background="new 0 0 21 21.425" xml:space="preserve">
<g>
	<path fill="#FFFFFF" d="M20.73,11.904l-0.323-0.441c-0.353-0.486-0.36-1.142-0.015-1.627l0.315-0.447
		c0.485-0.686,0.263-1.639-0.479-2.034l-0.485-0.261c-0.529-0.281-0.815-0.871-0.716-1.461l0.091-0.543
		c0.139-0.828-0.478-1.592-1.318-1.627L17.253,3.44c-0.599-0.026-1.114-0.431-1.28-1.007l-0.149-0.529
		c-0.234-0.807-1.119-1.223-1.894-0.895l-0.504,0.218c-0.551,0.239-1.188,0.096-1.592-0.353l-0.363-0.408
		C10.906-0.162,9.926-0.152,9.374,0.48l-0.36,0.412C8.619,1.344,7.98,1.496,7.432,1.266L6.923,1.057
		C6.146,0.736,5.266,1.17,5.045,1.981L4.902,2.51C4.746,3.088,4.234,3.5,3.635,3.534l-0.546,0.03
		c-0.837,0.048-1.444,0.82-1.293,1.645l0.101,0.539c0.107,0.59-0.174,1.18-0.694,1.471L0.721,7.483
		C-0.014,7.892-0.227,8.851,0.27,9.526l0.326,0.442c0.352,0.486,0.359,1.141,0.012,1.627l-0.315,0.445
		c-0.485,0.687-0.26,1.641,0.481,2.035l0.485,0.262c0.529,0.279,0.816,0.871,0.716,1.461l-0.091,0.543
		c-0.139,0.828,0.478,1.592,1.319,1.627l0.546,0.021c0.599,0.025,1.115,0.43,1.28,1.006l0.152,0.529
		c0.233,0.807,1.119,1.223,1.892,0.895l0.503-0.219c0.551-0.238,1.188-0.095,1.592,0.353l0.364,0.407
		c0.56,0.625,1.54,0.617,2.091-0.017l0.359-0.413c0.396-0.451,1.033-0.604,1.584-0.373l0.508,0.209
		c0.777,0.32,1.656-0.113,1.879-0.925l0.145-0.528c0.154-0.578,0.668-0.988,1.268-1.022l0.547-0.03
		c0.837-0.048,1.443-0.818,1.292-1.646l-0.101-0.536c-0.107-0.591,0.174-1.181,0.693-1.472l0.48-0.266
		C21.014,13.541,21.227,12.582,20.73,11.904z M13.083,14.274c-0.396,0.478-0.906,0.798-1.501,0.963
		c-0.26,0.068-0.377,0.209-0.364,0.479c0.013,0.264,0,0.533,0,0.797c0,0.238-0.12,0.365-0.354,0.369c-0.287,0.01-0.573,0.01-0.859,0
		c-0.251-0.004-0.369-0.147-0.373-0.391C9.628,16.296,9.628,16.1,9.628,15.91c-0.004-0.43-0.018-0.445-0.429-0.513
		c-0.529-0.082-1.046-0.203-1.527-0.438c-0.377-0.184-0.417-0.278-0.31-0.678c0.084-0.295,0.162-0.595,0.257-0.885
		c0.108-0.34,0.2-0.383,0.512-0.223c0.534,0.277,1.103,0.435,1.696,0.508c0.382,0.048,0.759,0.009,1.115-0.146
		c0.664-0.291,0.768-1.059,0.207-1.519c-0.189-0.156-0.406-0.272-0.632-0.373c-0.582-0.257-1.188-0.453-1.734-0.782
		C7.891,10.328,7.327,9.6,7.393,8.516C7.467,7.293,8.162,6.529,9.28,6.121c0.465-0.17,0.465-0.16,0.469-0.646
		c0-0.165,0-0.325,0-0.49c0.009-0.363,0.07-0.43,0.434-0.438c0.113-0.004,0.227,0,0.338,0c0.772,0,0.772,0,0.776,0.771
		c0.005,0.546,0,0.551,0.547,0.633c0.416,0.065,0.815,0.191,1.202,0.36c0.212,0.096,0.295,0.243,0.229,0.469
		c-0.096,0.334-0.188,0.673-0.295,1.002c-0.101,0.312-0.199,0.36-0.504,0.212c-0.604-0.291-1.236-0.412-1.905-0.377
		c-0.174,0.008-0.346,0.035-0.508,0.104C9.486,7.973,9.391,8.61,9.885,9.002c0.247,0.199,0.534,0.342,0.829,0.463
		c0.513,0.213,1.022,0.412,1.511,0.682C13.756,11.01,14.172,12.951,13.083,14.274z"/>
</g>
</svg>
