<?xml version="1.0" encoding="utf-8"?>
<!-- Generator: Adobe Illustrator 15.0.0, SVG Export Plug-In . SVG Version: 6.00 Build 0)  -->
<!DOCTYPE svg PUBLIC "-//W3C//DTD SVG 1.1//EN" "http://www.w3.org/Graphics/SVG/1.1/DTD/svg11.dtd">
<svg version="1.1" id="Calque_1" xmlns="http://www.w3.org/2000/svg" xmlns:xlink="http://www.w3.org/1999/xlink" x="0px" y="0px"
	 width="16px" height="16px" viewBox="0 0 16 16" enable-background="new 0 0 16 16" xml:space="preserve">
<rect fill="none" width="16" height="16"/>
<g>
	<path fill="#FFFBFF" d="M8.941,0H7.059v9.412h1.882V0z M12.33,2.259l-1.318,1.318c1.506,1.035,2.635,2.823,2.635,4.894
		c0,3.105-2.541,5.646-5.646,5.646S2.354,11.575,2.354,8.47c0-2.07,1.129-3.858,2.729-4.8L3.671,2.259
		C1.789,3.67,0.472,5.929,0.472,8.47C0.472,12.611,3.859,16,8,16c4.14,0,7.528-3.389,7.528-7.53
		C15.528,5.929,14.212,3.67,12.33,2.259z"/>
</g>
</svg>
